<?xml version="1.0" encoding="UTF-8" standalone="no"?>
<svg
   width="494"
   height="156"
   viewBox="0 0 494 156"
   fill="none"
   version="1.1"
   id="svg24"
   sodipodi:docname="503-dark.svg"
   inkscape:version="1.3.2 (091e20e, 2023-11-25)"
   xmlns:inkscape="http://www.inkscape.org/namespaces/inkscape"
   xmlns:sodipodi="http://sodipodi.sourceforge.net/DTD/sodipodi-0.dtd"
   xmlns="http://www.w3.org/2000/svg"
   xmlns:svg="http://www.w3.org/2000/svg">
  <defs
     id="defs24" />
  <sodipodi:namedview
     id="namedview24"
     pagecolor="#ffffff"
     bordercolor="#000000"
     borderopacity="0.25"
     inkscape:showpageshadow="2"
     inkscape:pageopacity="0.0"
     inkscape:pagecheckerboard="0"
     inkscape:deskcolor="#d1d1d1"
     inkscape:zoom="1.5128205"
     inkscape:cx="246.88983"
     inkscape:cy="78"
     inkscape:window-width="1536"
     inkscape:window-height="449"
     inkscape:window-x="0"
     inkscape:window-y="44"
     inkscape:window-maximized="0"
     inkscape:current-layer="svg24" />
  <rect
     x="0.515625"
     y="13.4492"
     width="32.6255"
     height="71"
     rx="6.26271"
     fill="#7592FF"
     id="rect1"
     style="fill:#ff2a2a;stroke:#ff2a2a" />
  <rect
     x="0.515625"
     y="13.4492"
     width="32.6255"
     height="71"
     rx="6.26271"
     stroke="#7592FF"
     id="rect2"
     style="fill:#ff2a2a;stroke:#ff2a2a" />
  <rect
     x="88.6436"
     y="80.1699"
     width="32.6255"
     height="63.5801"
     rx="6.26271"
     fill="#7592FF"
     id="rect3"
     style="fill:#ff2a2a;stroke:#ff2a2a" />
  <rect
     x="88.6436"
     y="80.1699"
     width="32.6255"
     height="63.5801"
     rx="6.26271"
     stroke="#7592FF"
     id="rect4"
     style="fill:#ff2a2a;stroke:#ff2a2a" />
  <rect
     x="15.8799"
     y="33.4863"
     width="32.6255"
     height="105.389"
     rx="6.26271"
     transform="rotate(-90 15.8799 33.4863)"
     fill="#7592FF"
     id="rect5"
     style="fill:#ff2a2a;stroke:#ff2a2a" />
  <rect
     x="15.8799"
     y="33.4863"
     width="32.6255"
     height="105.389"
     rx="6.26271"
     transform="rotate(-90 15.8799 33.4863)"
     stroke="#7592FF"
     id="rect6"
     style="fill:#ff2a2a;stroke:#ff2a2a" />
  <rect
     x="0.515625"
     y="155.18"
     width="30"
     height="107.028"
     rx="6.26271"
     transform="rotate(-90 0.515625 155.18)"
     fill="#7592FF"
     id="rect7"
     style="fill:#ff2a2a;stroke:#ff2a2a" />
  <rect
     x="0.515625"
     y="155.18"
     width="30"
     height="107.028"
     rx="6.26271"
     transform="rotate(-90 0.515625 155.18)"
     stroke="#7592FF"
     id="rect8"
     style="fill:#ff2a2a;stroke:#ff2a2a" />
  <rect
     x="15.8799"
     y="96.3594"
     width="32.6255"
     height="91.6638"
     rx="6.26271"
     transform="rotate(-90 15.8799 96.3594)"
     fill="#7592FF"
     id="rect9"
     style="fill:#ff2a2a;stroke:#ff2a2a" />
  <rect
     x="15.8799"
     y="96.3594"
     width="32.6255"
     height="91.6638"
     rx="6.26271"
     transform="rotate(-90 15.8799 96.3594)"
     stroke="#7592FF"
     id="rect10"
     style="fill:#ff2a2a;stroke:#ff2a2a" />
  <rect
     x="163.27"
     y="12.8691"
     width="166.462"
     height="130.311"
     rx="28"
     stroke="#7592FF"
     stroke-width="24"
     id="rect11"
     style="fill:none;stroke:#ff2a2a" />
  <rect
     x="213.874"
     y="42.0482"
     width="22.1453"
     height="20.7141"
     rx="2.63433"
     fill="#7592FF"
     stroke="#7592FF"
     stroke-width="0.752667"
     id="rect12"
     style="fill:#ff2a2a;stroke:#ff2a2a" />
  <rect
     x="257.523"
     y="42.0482"
     width="22.1453"
     height="20.7141"
     rx="2.63433"
     fill="#7592FF"
     stroke="#7592FF"
     stroke-width="0.752667"
     id="rect13"
     style="fill:#ff2a2a;stroke:#ff2a2a" />
  <rect
     x="268.972"
     y="98.5775"
     width="22.1453"
     height="20.7141"
     rx="2.63433"
     fill="#7592FF"
     stroke="#7592FF"
     stroke-width="0.752667"
     id="rect14"
     style="fill:#ff2a2a;stroke:#ff2a2a" />
  <rect
     x="202.425"
     y="98.5775"
     width="22.1453"
     height="20.7141"
     rx="2.63433"
     fill="#7592FF"
     stroke="#7592FF"
     stroke-width="0.752667"
     id="rect15"
     style="fill:#ff2a2a;stroke:#ff2a2a" />
  <rect
     x="218.167"
     y="83.1927"
     width="57.5655"
     height="20.7141"
     rx="2.63433"
     fill="#7592FF"
     stroke="#7592FF"
     stroke-width="0.752667"
     id="rect16"
     style="fill:#ff2a2a;stroke:#ff2a2a" />
  <rect
     x="460.859"
     y="11.1885"
     width="32.6255"
     height="132.562"
     rx="6.26271"
     fill="#7592FF"
     id="rect17"
     style="fill:#ff2a2a;stroke:#ff2a2a" />
  <rect
     x="460.859"
     y="11.1885"
     width="32.6255"
     height="132.562"
     rx="6.26271"
     stroke="#7592FF"
     id="rect18"
     style="fill:#ff2a2a;stroke:#ff2a2a" />
  <rect
     x="371.731"
     y="33.4453"
     width="32.6255"
     height="107.028"
     rx="6.26271"
     transform="rotate(-90 371.731 33.4453)"
     fill="#7592FF"
     id="rect19"
     style="fill:#ff2a2a;stroke:#ff2a2a" />
  <rect
     x="371.731"
     y="33.4453"
     width="32.6255"
     height="107.028"
     rx="6.26271"
     transform="rotate(-90 371.731 33.4453)"
     stroke="#7592FF"
     id="rect20"
     style="fill:#ff2a2a;stroke:#ff2a2a" />
  <rect
     x="371.731"
     y="155.18"
     width="30"
     height="107.028"
     rx="6.26271"
     transform="rotate(-90 371.731 155.18)"
     fill="#7592FF"
     id="rect21"
     style="fill:#ff2a2a;stroke:#ff2a2a" />
  <rect
     x="371.731"
     y="155.18"
     width="30"
     height="107.028"
     rx="6.26271"
     transform="rotate(-90 371.731 155.18)"
     stroke="#7592FF"
     id="rect22"
     style="fill:#ff2a2a;stroke:#ff2a2a" />
  <rect
     x="388.096"
     y="93.7812"
     width="32.6255"
     height="91.6638"
     rx="6.26271"
     transform="rotate(-90 388.096 93.7812)"
     fill="#7592FF"
     id="rect23"
     style="fill:#ff2a2a;stroke:#ff2a2a" />
  <rect
     x="388.096"
     y="93.7812"
     width="32.6255"
     height="91.6638"
     rx="6.26271"
     transform="rotate(-90 388.096 93.7812)"
     stroke="#7592FF"
     id="rect24"
     style="fill:#ff2a2a;stroke:#ff2a2a" />
</svg>
